<mxfile host="app.diagrams.net" agent="Mozilla/5.0 (Macintosh; Intel Mac OS X 10_15_7) AppleWebKit/537.36 (KHTML, like Gecko) Chrome/133.0.0.0 Safari/537.36" version="26.1.0">
  <diagram name="Page-1" id="zvRpYTr5Dj9YCrpZL9fe">
    <mxGraphModel dx="2007" dy="1458" grid="1" gridSize="10" guides="1" tooltips="1" connect="1" arrows="1" fold="1" page="1" pageScale="1" pageWidth="850" pageHeight="1100" math="0" shadow="0">
      <root>
        <mxCell id="0" />
        <mxCell id="1" parent="0" />
        <mxCell id="OCPN0xTzIQZhu6h7r-t7-1" value="User" style="shape=umlActor;verticalLabelPosition=bottom;verticalAlign=top;html=1;outlineConnect=0;" vertex="1" parent="1">
          <mxGeometry x="90" y="20" width="30" height="60" as="geometry" />
        </mxCell>
        <mxCell id="OCPN0xTzIQZhu6h7r-t7-2" value="SearchScreen" style="shape=umlBoundary;whiteSpace=wrap;html=1;verticalAlign=top;fontSize=12;labelPosition=center;verticalLabelPosition=bottom;align=center;" vertex="1" parent="1">
          <mxGeometry x="240" y="20" width="70" height="60" as="geometry" />
        </mxCell>
        <mxCell id="OCPN0xTzIQZhu6h7r-t7-3" value="SearchController" style="ellipse;shape=umlControl;whiteSpace=wrap;html=1;labelPosition=center;verticalLabelPosition=bottom;align=center;verticalAlign=top;" vertex="1" parent="1">
          <mxGeometry x="420" y="10" width="60" height="70" as="geometry" />
        </mxCell>
        <mxCell id="OCPN0xTzIQZhu6h7r-t7-4" value="AIAgentController" style="ellipse;shape=umlControl;whiteSpace=wrap;html=1;labelPosition=center;verticalLabelPosition=bottom;align=center;verticalAlign=top;" vertex="1" parent="1">
          <mxGeometry x="590" y="10" width="60" height="70" as="geometry" />
        </mxCell>
        <mxCell id="OCPN0xTzIQZhu6h7r-t7-5" value="Multiple Databases" style="shape=cylinder3;html=1;boundedLbl=1;backgroundOutline=1;size=15;labelPosition=center;verticalLabelPosition=bottom;align=center;verticalAlign=top;" vertex="1" parent="1">
          <mxGeometry x="760" y="20.000000000000057" width="40" height="60" as="geometry" />
        </mxCell>
        <mxCell id="OCPN0xTzIQZhu6h7r-t7-6" value="" style="endArrow=none;dashed=1;html=1;rounded=0;" edge="1" parent="1" source="OCPN0xTzIQZhu6h7r-t7-13">
          <mxGeometry width="50" height="50" relative="1" as="geometry">
            <mxPoint x="100" y="940" as="sourcePoint" />
            <mxPoint x="100" y="110" as="targetPoint" />
          </mxGeometry>
        </mxCell>
        <mxCell id="OCPN0xTzIQZhu6h7r-t7-7" value="" style="endArrow=none;dashed=1;html=1;rounded=0;" edge="1" parent="1" source="OCPN0xTzIQZhu6h7r-t7-16">
          <mxGeometry width="50" height="50" relative="1" as="geometry">
            <mxPoint x="280" y="940" as="sourcePoint" />
            <mxPoint x="280" y="110" as="targetPoint" />
          </mxGeometry>
        </mxCell>
        <mxCell id="OCPN0xTzIQZhu6h7r-t7-8" value="" style="endArrow=none;dashed=1;html=1;rounded=0;" edge="1" parent="1" source="OCPN0xTzIQZhu6h7r-t7-20">
          <mxGeometry width="50" height="50" relative="1" as="geometry">
            <mxPoint x="450" y="940" as="sourcePoint" />
            <mxPoint x="450" y="110" as="targetPoint" />
          </mxGeometry>
        </mxCell>
        <mxCell id="OCPN0xTzIQZhu6h7r-t7-9" value="" style="endArrow=none;dashed=1;html=1;rounded=0;" edge="1" parent="1" source="OCPN0xTzIQZhu6h7r-t7-25">
          <mxGeometry width="50" height="50" relative="1" as="geometry">
            <mxPoint x="620" y="940" as="sourcePoint" />
            <mxPoint x="620" y="110" as="targetPoint" />
          </mxGeometry>
        </mxCell>
        <mxCell id="OCPN0xTzIQZhu6h7r-t7-10" value="" style="endArrow=none;dashed=1;html=1;rounded=0;" edge="1" parent="1">
          <mxGeometry width="50" height="50" relative="1" as="geometry">
            <mxPoint x="780" y="420" as="sourcePoint" />
            <mxPoint x="780" y="110" as="targetPoint" />
          </mxGeometry>
        </mxCell>
        <mxCell id="OCPN0xTzIQZhu6h7r-t7-14" value="" style="endArrow=none;dashed=1;html=1;rounded=0;" edge="1" parent="1" source="OCPN0xTzIQZhu6h7r-t7-37" target="OCPN0xTzIQZhu6h7r-t7-13">
          <mxGeometry width="50" height="50" relative="1" as="geometry">
            <mxPoint x="100" y="940" as="sourcePoint" />
            <mxPoint x="100" y="110" as="targetPoint" />
          </mxGeometry>
        </mxCell>
        <mxCell id="OCPN0xTzIQZhu6h7r-t7-13" value="" style="rounded=0;whiteSpace=wrap;html=1;" vertex="1" parent="1">
          <mxGeometry x="90" y="120" width="20" height="60" as="geometry" />
        </mxCell>
        <mxCell id="OCPN0xTzIQZhu6h7r-t7-15" value="Enter search prompt" style="endArrow=classic;html=1;rounded=0;labelPosition=center;verticalLabelPosition=top;align=center;verticalAlign=bottom;" edge="1" parent="1">
          <mxGeometry width="50" height="50" relative="1" as="geometry">
            <mxPoint x="110" y="150" as="sourcePoint" />
            <mxPoint x="270" y="150" as="targetPoint" />
          </mxGeometry>
        </mxCell>
        <mxCell id="OCPN0xTzIQZhu6h7r-t7-17" value="" style="endArrow=none;dashed=1;html=1;rounded=0;" edge="1" parent="1" target="OCPN0xTzIQZhu6h7r-t7-16">
          <mxGeometry width="50" height="50" relative="1" as="geometry">
            <mxPoint x="280" y="430" as="sourcePoint" />
            <mxPoint x="280" y="110" as="targetPoint" />
          </mxGeometry>
        </mxCell>
        <mxCell id="OCPN0xTzIQZhu6h7r-t7-16" value="" style="rounded=0;whiteSpace=wrap;html=1;" vertex="1" parent="1">
          <mxGeometry x="270" y="140" width="20" height="60" as="geometry" />
        </mxCell>
        <mxCell id="OCPN0xTzIQZhu6h7r-t7-18" value="Send search request" style="endArrow=classic;html=1;rounded=0;labelPosition=center;verticalLabelPosition=top;align=center;verticalAlign=bottom;" edge="1" parent="1">
          <mxGeometry width="50" height="50" relative="1" as="geometry">
            <mxPoint x="290" y="170" as="sourcePoint" />
            <mxPoint x="440" y="170" as="targetPoint" />
          </mxGeometry>
        </mxCell>
        <mxCell id="OCPN0xTzIQZhu6h7r-t7-19" value="" style="endArrow=none;dashed=1;html=1;rounded=0;" edge="1" parent="1" target="OCPN0xTzIQZhu6h7r-t7-20">
          <mxGeometry width="50" height="50" relative="1" as="geometry">
            <mxPoint x="450" y="430" as="sourcePoint" />
            <mxPoint x="450" y="110" as="targetPoint" />
          </mxGeometry>
        </mxCell>
        <mxCell id="OCPN0xTzIQZhu6h7r-t7-20" value="" style="rounded=0;whiteSpace=wrap;html=1;" vertex="1" parent="1">
          <mxGeometry x="440" y="150" width="20" height="60" as="geometry" />
        </mxCell>
        <mxCell id="OCPN0xTzIQZhu6h7r-t7-23" value="Convert text to input object for&lt;div&gt;AI Agent and send request&lt;/div&gt;" style="endArrow=classic;html=1;rounded=0;labelPosition=center;verticalLabelPosition=top;align=center;verticalAlign=bottom;" edge="1" parent="1">
          <mxGeometry width="50" height="50" relative="1" as="geometry">
            <mxPoint x="460" y="190" as="sourcePoint" />
            <mxPoint x="610" y="190" as="targetPoint" />
          </mxGeometry>
        </mxCell>
        <mxCell id="OCPN0xTzIQZhu6h7r-t7-24" value="" style="endArrow=none;dashed=1;html=1;rounded=0;" edge="1" parent="1" target="OCPN0xTzIQZhu6h7r-t7-25">
          <mxGeometry width="50" height="50" relative="1" as="geometry">
            <mxPoint x="620" y="430" as="sourcePoint" />
            <mxPoint x="620" y="110" as="targetPoint" />
          </mxGeometry>
        </mxCell>
        <mxCell id="OCPN0xTzIQZhu6h7r-t7-25" value="" style="rounded=0;whiteSpace=wrap;html=1;" vertex="1" parent="1">
          <mxGeometry x="610" y="170" width="20" height="60" as="geometry" />
        </mxCell>
        <mxCell id="OCPN0xTzIQZhu6h7r-t7-28" value="Query data" style="endArrow=classic;html=1;rounded=0;labelPosition=center;verticalLabelPosition=top;align=center;verticalAlign=bottom;" edge="1" parent="1">
          <mxGeometry width="50" height="50" relative="1" as="geometry">
            <mxPoint x="630" y="210" as="sourcePoint" />
            <mxPoint x="770" y="210" as="targetPoint" />
          </mxGeometry>
        </mxCell>
        <mxCell id="OCPN0xTzIQZhu6h7r-t7-29" value="" style="rounded=0;whiteSpace=wrap;html=1;" vertex="1" parent="1">
          <mxGeometry x="770" y="200" width="20" height="110" as="geometry" />
        </mxCell>
        <mxCell id="OCPN0xTzIQZhu6h7r-t7-30" value="Return data" style="endArrow=classic;html=1;rounded=0;dashed=1;labelPosition=center;verticalLabelPosition=top;align=center;verticalAlign=bottom;" edge="1" parent="1">
          <mxGeometry width="50" height="50" relative="1" as="geometry">
            <mxPoint x="770" y="280" as="sourcePoint" />
            <mxPoint x="630" y="280" as="targetPoint" />
          </mxGeometry>
        </mxCell>
        <mxCell id="OCPN0xTzIQZhu6h7r-t7-31" value="" style="rounded=0;whiteSpace=wrap;html=1;" vertex="1" parent="1">
          <mxGeometry x="610" y="260" width="20" height="60" as="geometry" />
        </mxCell>
        <mxCell id="OCPN0xTzIQZhu6h7r-t7-32" value="Refilter data based on&lt;div&gt;theirs content&lt;/div&gt;" style="endArrow=classic;html=1;rounded=0;dashed=1;labelPosition=center;verticalLabelPosition=top;align=center;verticalAlign=bottom;" edge="1" parent="1">
          <mxGeometry width="50" height="50" relative="1" as="geometry">
            <mxPoint x="610" y="290" as="sourcePoint" />
            <mxPoint x="460" y="290" as="targetPoint" />
          </mxGeometry>
        </mxCell>
        <mxCell id="OCPN0xTzIQZhu6h7r-t7-33" value="" style="rounded=0;whiteSpace=wrap;html=1;" vertex="1" parent="1">
          <mxGeometry x="440" y="270" width="20" height="60" as="geometry" />
        </mxCell>
        <mxCell id="OCPN0xTzIQZhu6h7r-t7-34" value="Return data as result groups" style="endArrow=classic;html=1;rounded=0;dashed=1;labelPosition=center;verticalLabelPosition=top;align=center;verticalAlign=bottom;" edge="1" parent="1">
          <mxGeometry width="50" height="50" relative="1" as="geometry">
            <mxPoint x="440" y="300" as="sourcePoint" />
            <mxPoint x="290" y="300" as="targetPoint" />
          </mxGeometry>
        </mxCell>
        <mxCell id="OCPN0xTzIQZhu6h7r-t7-35" value="" style="rounded=0;whiteSpace=wrap;html=1;" vertex="1" parent="1">
          <mxGeometry x="265" y="290" width="20" height="60" as="geometry" />
        </mxCell>
        <mxCell id="OCPN0xTzIQZhu6h7r-t7-36" value="Display data as tabs for user" style="endArrow=classic;html=1;rounded=0;dashed=1;labelPosition=center;verticalLabelPosition=top;align=center;verticalAlign=bottom;" edge="1" parent="1">
          <mxGeometry width="50" height="50" relative="1" as="geometry">
            <mxPoint x="265" y="320" as="sourcePoint" />
            <mxPoint x="110" y="320" as="targetPoint" />
          </mxGeometry>
        </mxCell>
        <mxCell id="OCPN0xTzIQZhu6h7r-t7-38" value="" style="endArrow=none;dashed=1;html=1;rounded=0;" edge="1" parent="1" target="OCPN0xTzIQZhu6h7r-t7-37">
          <mxGeometry width="50" height="50" relative="1" as="geometry">
            <mxPoint x="100" y="430" as="sourcePoint" />
            <mxPoint x="100" y="180" as="targetPoint" />
          </mxGeometry>
        </mxCell>
        <mxCell id="OCPN0xTzIQZhu6h7r-t7-37" value="" style="rounded=0;whiteSpace=wrap;html=1;" vertex="1" parent="1">
          <mxGeometry x="90" y="310" width="20" height="60" as="geometry" />
        </mxCell>
      </root>
    </mxGraphModel>
  </diagram>
</mxfile>
